<svg xmlns="http://www.w3.org/2000/svg" viewBox="0 0 200 200">
  <!-- Cream background fills the entire square including letterbox areas -->
  <rect width="200" height="200" rx="44" fill="#fbf3e8"/>
  <!-- Full logo scaled to fit, centered -->
  <svg x="10" y="59.82" width="180" height="80.36" viewBox="0 0 1344 600">
    <g id="#fbf3e8ff">
<path fill="#fbf3e8" opacity="1.00" d=" M 0.00 0.00 L 1344.00 0.00 L 1344.00 600.00 L 0.00 600.00 L 0.00 0.00 M 177.06 36.90 C 157.98 43.11 139.31 51.18 122.93 62.91 C 101.75 76.94 83.66 95.24 68.74 115.72 C 59.43 129.57 50.68 143.93 44.42 159.44 C 36.77 177.73 32.34 197.18 29.12 216.69 C 28.35 220.07 28.64 223.57 28.31 227.01 C 26.94 234.59 27.32 242.33 27.28 250.00 C 27.40 256.66 27.02 263.39 28.15 270.00 C 29.63 292.20 34.58 314.16 42.39 335.00 C 57.60 372.84 82.47 407.33 115.81 431.18 C 128.35 440.34 141.50 448.85 155.85 454.90 C 183.26 466.79 213.19 472.42 243.00 472.36 C 299.67 472.33 356.34 472.36 413.01 472.25 C 416.12 472.07 419.51 472.29 422.40 471.03 C 422.65 444.52 422.53 418.00 422.51 391.49 C 418.43 390.33 414.17 390.75 409.99 390.70 C 377.00 390.78 344.00 390.62 311.00 390.69 C 284.34 390.65 257.68 391.05 231.03 390.63 C 212.86 389.31 195.49 382.72 179.45 374.37 C 168.61 368.82 158.95 361.22 150.44 352.57 C 141.00 343.35 132.67 332.92 126.44 321.26 C 117.36 304.48 112.92 285.70 109.82 267.02 C 108.72 255.03 109.21 242.96 109.68 230.95 C 110.35 222.16 114.57 214.01 114.65 205.16 C 114.85 205.73 115.05 206.29 115.26 206.86 C 121.30 185.32 132.27 164.98 147.77 148.76 C 158.97 137.86 171.41 127.92 185.78 121.53 C 200.16 114.39 216.00 110.30 232.01 109.42 C 286.01 109.43 340.01 109.45 394.01 109.53 C 396.44 109.49 398.86 109.36 401.29 109.18 C 398.37 104.08 393.16 100.98 388.99 97.02 C 374.26 84.46 359.81 71.57 345.28 58.78 C 333.98 49.08 323.17 38.81 311.51 29.54 C 309.47 27.70 306.70 27.27 304.05 27.36 C 281.03 27.44 258.01 27.26 234.99 27.41 C 215.33 27.53 195.84 31.20 177.06 36.90 M 817.58 27.56 C 817.34 58.37 817.89 89.19 817.34 120.00 C 817.31 129.34 817.56 138.69 816.69 148.00 C 816.87 166.00 816.07 184.03 817.35 201.99 C 817.30 217.00 817.46 232.01 817.21 247.01 C 816.41 254.32 816.74 261.67 816.68 269.00 C 816.72 283.67 816.71 298.33 816.61 312.99 C 816.53 316.86 817.26 320.67 817.66 324.51 C 817.08 324.59 815.92 324.75 815.34 324.83 C 811.74 322.06 809.28 318.12 805.91 315.09 C 790.91 300.75 777.05 285.29 762.48 270.52 C 745.16 253.49 728.82 235.52 711.93 218.07 C 698.04 203.96 683.82 190.17 670.38 175.64 C 645.12 149.55 619.47 123.85 594.44 97.55 C 581.38 84.28 568.09 71.23 555.13 57.86 C 548.60 50.73 542.02 43.65 535.07 36.93 C 527.51 29.40 516.25 27.44 505.99 27.45 C 466.99 27.22 427.99 27.30 388.99 27.41 C 382.94 27.47 376.88 27.00 370.84 27.53 C 373.16 30.43 376.04 32.78 378.90 35.13 C 389.61 44.76 400.75 53.90 411.45 63.54 C 429.31 79.77 448.09 94.93 466.47 110.55 C 466.60 118.37 466.11 126.24 467.42 133.98 C 467.49 193.99 467.42 253.99 467.45 314.00 C 467.15 366.75 467.47 419.50 467.36 472.25 C 490.57 472.71 513.79 472.20 537.00 472.29 C 540.42 472.39 543.84 472.03 547.23 471.56 C 547.95 430.38 547.27 389.18 547.32 348.00 C 547.30 290.30 547.81 232.60 547.42 174.90 C 550.33 175.40 552.90 176.95 554.98 179.00 C 565.98 189.66 576.59 200.70 587.40 211.55 C 597.63 221.35 606.77 232.20 617.17 241.83 C 625.67 249.66 633.33 258.33 641.53 266.47 C 654.36 279.31 666.62 292.71 679.56 305.44 C 692.69 318.31 704.98 331.99 718.03 344.93 C 729.42 356.56 740.90 368.10 752.63 379.37 C 760.31 386.65 767.34 394.70 775.95 400.92 C 787.99 389.98 798.78 377.77 810.48 366.48 C 823.16 354.17 835.00 341.05 847.35 328.42 C 855.91 318.65 865.32 309.68 874.40 300.41 C 882.68 292.34 890.40 283.74 898.54 275.54 L 898.56 276.31 C 900.06 245.58 899.44 214.77 899.56 184.00 C 899.78 160.98 899.25 137.96 899.29 114.94 C 899.24 113.01 899.70 111.13 900.35 109.33 C 924.57 109.30 948.78 109.21 973.00 109.27 C 1034.66 109.45 1096.33 109.17 1157.99 109.38 C 1170.74 109.35 1183.90 110.92 1195.50 116.52 C 1214.08 125.26 1228.10 142.08 1235.68 160.94 C 1238.80 171.49 1241.49 182.59 1240.00 193.67 C 1238.21 211.04 1232.55 228.66 1220.87 241.96 C 1205.35 259.69 1181.47 269.56 1157.99 268.57 C 1112.20 268.79 1066.40 268.52 1020.61 268.55 C 1020.68 295.15 1020.68 321.75 1020.67 348.35 C 1065.11 348.51 1109.56 348.38 1154.00 348.34 C 1167.06 348.55 1180.12 347.60 1193.02 345.57 C 1201.52 344.66 1209.46 341.31 1217.55 338.77 C 1238.37 331.48 1257.61 319.76 1273.75 304.74 C 1283.82 295.60 1292.06 284.62 1299.07 273.01 C 1309.63 255.20 1316.10 235.21 1319.56 214.86 C 1321.08 203.65 1322.27 192.27 1320.73 180.99 C 1319.56 159.28 1314.95 137.46 1304.97 118.02 C 1296.74 102.33 1286.84 87.31 1274.02 74.98 C 1260.95 61.38 1245.16 50.47 1227.96 42.78 C 1209.68 34.58 1190.10 28.93 1170.06 27.53 C 1158.71 27.26 1147.35 27.48 1136.00 27.44 C 1029.86 27.55 923.72 27.33 817.58 27.56 M 968.79 268.83 C 947.82 289.87 928.31 312.31 907.48 333.48 C 898.93 342.92 890.12 352.12 881.41 361.41 C 857.77 385.79 835.84 411.76 812.18 436.10 C 803.55 445.51 794.89 454.88 786.40 464.41 C 779.98 471.32 773.59 478.28 767.99 485.88 C 765.68 484.66 763.44 483.29 761.50 481.53 C 754.27 475.06 746.39 469.34 739.40 462.61 C 733.84 457.86 728.69 452.66 723.12 447.93 C 715.25 440.74 706.72 434.31 698.91 427.05 C 675.25 406.79 653.29 384.60 629.13 364.90 C 627.16 363.29 624.75 362.01 622.12 362.49 C 618.47 362.51 617.62 367.12 617.56 370.00 C 617.42 396.01 617.59 422.02 617.41 448.03 C 617.38 450.71 616.71 453.93 619.36 455.65 C 634.23 468.75 648.93 482.05 663.84 495.12 C 676.27 506.02 687.66 518.01 699.98 529.02 C 707.48 536.21 715.70 542.59 723.15 549.84 C 735.46 560.87 747.51 572.23 760.37 582.65 C 762.70 584.54 764.90 586.93 767.93 587.66 C 773.92 582.46 779.19 576.47 784.79 570.85 C 791.43 562.83 799.39 556.05 806.14 548.12 C 811.64 542.01 817.81 536.53 823.05 530.18 C 826.04 526.49 829.10 522.85 832.52 519.55 C 836.61 515.62 839.99 511.04 844.00 507.04 C 864.16 487.15 882.74 465.75 902.07 445.06 C 921.40 424.73 940.55 404.22 959.88 383.88 C 965.98 377.30 971.67 370.34 978.05 364.03 C 980.17 362.28 979.59 359.41 979.71 357.00 C 979.49 328.64 979.68 300.28 979.44 271.93 C 980.23 266.14 971.72 264.85 968.79 268.83 Z" />
</g>
<g id="#0b1116ff">
<path fill="#0b1116" opacity="1.00" d=" M 177.06 36.90 C 195.84 31.20 215.33 27.53 234.99 27.41 C 258.01 27.26 281.03 27.44 304.05 27.36 C 306.70 27.27 309.47 27.70 311.51 29.54 C 323.17 38.81 333.98 49.08 345.28 58.78 C 359.81 71.57 374.26 84.46 388.99 97.02 C 393.16 100.98 398.37 104.08 401.29 109.18 C 398.86 109.36 396.44 109.49 394.01 109.53 C 340.01 109.45 286.01 109.43 232.01 109.42 C 216.00 110.30 200.16 114.39 185.78 121.53 C 171.41 127.92 158.97 137.86 147.77 148.76 C 132.27 164.98 121.30 185.32 115.26 206.86 C 115.05 206.29 114.85 205.73 114.65 205.16 C 114.57 214.01 110.35 222.16 109.68 230.95 C 109.21 242.96 108.72 255.03 109.82 267.02 C 112.92 285.70 117.36 304.48 126.44 321.26 C 132.67 332.92 141.00 343.35 150.44 352.57 C 158.95 361.22 168.61 368.82 179.45 374.37 C 195.49 382.72 212.86 389.31 231.03 390.63 C 257.68 391.05 284.34 390.65 311.00 390.69 C 344.00 390.62 377.00 390.78 409.99 390.70 C 414.17 390.75 418.43 390.33 422.51 391.49 C 422.53 418.00 422.65 444.52 422.40 471.03 C 419.51 472.29 416.12 472.07 413.01 472.25 C 356.34 472.36 299.67 472.33 243.00 472.36 C 213.19 472.42 183.26 466.79 155.85 454.90 C 141.50 448.85 128.35 440.34 115.81 431.18 C 82.47 407.33 57.60 372.84 42.39 335.00 C 34.58 314.16 29.63 292.20 28.15 270.00 C 27.02 263.39 27.40 256.66 27.28 250.00 C 27.32 242.33 26.94 234.59 28.31 227.01 C 28.64 223.57 28.35 220.07 29.12 216.69 C 32.34 197.18 36.77 177.73 44.42 159.44 C 50.68 143.93 59.43 129.57 68.74 115.72 C 83.66 95.24 101.75 76.94 122.93 62.91 C 139.31 51.18 157.98 43.11 177.06 36.90 Z" />
<path fill="#0b1116" opacity="1.00" d=" M 370.84 27.53 C 376.88 27.00 382.94 27.47 388.99 27.41 C 427.99 27.30 466.99 27.22 505.99 27.45 C 516.25 27.44 527.51 29.40 535.07 36.93 C 542.02 43.65 548.60 50.73 555.13 57.86 C 568.09 71.23 581.38 84.28 594.44 97.55 C 619.47 123.85 645.12 149.55 670.38 175.64 C 683.82 190.17 698.04 203.96 711.93 218.07 C 728.82 235.52 745.16 253.49 762.48 270.52 C 777.05 285.29 790.91 300.75 805.91 315.09 C 809.28 318.12 811.74 322.06 815.34 324.83 C 816.31 325.53 817.33 326.20 818.35 326.86 C 818.64 308.58 818.46 290.29 818.45 272.00 C 818.58 220.32 818.54 168.63 818.51 116.95 C 818.56 115.07 818.63 113.15 819.24 111.34 C 821.39 109.82 824.04 109.29 826.58 108.81 C 833.35 107.71 840.21 107.16 847.07 107.39 C 854.82 107.59 861.90 111.44 868.02 115.91 C 875.58 121.63 882.49 128.14 889.15 134.87 C 891.93 137.79 894.82 140.70 896.85 144.23 C 898.53 147.18 898.47 150.69 898.53 153.99 C 898.41 171.99 898.48 190.00 898.57 208.01 C 898.84 230.52 898.03 253.03 898.54 275.54 C 890.40 283.74 882.68 292.34 874.40 300.41 C 865.32 309.68 855.91 318.65 847.35 328.42 C 835.00 341.05 823.16 354.17 810.48 366.48 C 798.78 377.77 787.99 389.98 775.95 400.92 C 767.34 394.70 760.31 386.65 752.63 379.37 C 740.90 368.10 729.42 356.56 718.03 344.93 C 704.98 331.99 692.69 318.31 679.56 305.44 C 666.62 292.71 654.36 279.31 641.53 266.47 C 633.33 258.33 625.67 249.66 617.17 241.83 C 606.77 232.20 597.63 221.35 587.40 211.55 C 576.59 200.70 565.98 189.66 554.98 179.00 C 552.90 176.95 550.33 175.40 547.42 174.90 C 547.81 232.60 547.30 290.30 547.32 348.00 C 547.27 389.18 547.95 430.38 547.23 471.56 C 543.84 472.03 540.42 472.39 537.00 472.29 C 513.79 472.20 490.57 472.71 467.36 472.25 C 467.47 419.50 467.15 366.75 467.45 314.00 C 467.42 253.99 467.49 193.99 467.42 133.98 C 466.11 126.24 466.60 118.37 466.47 110.55 C 448.09 94.93 429.31 79.77 411.45 63.54 C 400.75 53.90 389.61 44.76 378.90 35.13 C 376.04 32.78 373.16 30.43 370.84 27.53 Z" />
</g>
<g id="#3caf62ff">
<path fill="#3caf62" opacity="1.00" d=" M 817.58 27.56 C 923.72 27.33 1029.86 27.55 1136.00 27.44 C 1147.35 27.48 1158.71 27.26 1170.06 27.53 C 1190.10 28.93 1209.68 34.58 1227.96 42.78 C 1245.16 50.47 1260.95 61.38 1274.02 74.98 C 1286.84 87.31 1296.74 102.33 1304.97 118.02 C 1314.95 137.46 1319.56 159.28 1320.73 180.99 C 1322.27 192.27 1321.08 203.65 1319.56 214.86 C 1316.10 235.21 1309.63 255.20 1299.07 273.01 C 1292.06 284.62 1283.82 295.60 1273.75 304.74 C 1257.61 319.76 1238.37 331.48 1217.55 338.77 C 1209.46 341.31 1201.52 344.66 1193.02 345.57 C 1180.12 347.60 1167.06 348.55 1154.00 348.34 C 1109.56 348.38 1065.11 348.51 1020.67 348.35 C 1020.68 321.75 1020.68 295.15 1020.61 268.55 C 1066.40 268.52 1112.20 268.79 1157.99 268.57 C 1181.47 269.56 1205.35 259.69 1220.87 241.96 C 1232.55 228.66 1238.21 211.04 1240.00 193.67 C 1241.49 182.59 1238.80 171.49 1235.68 160.94 C 1228.10 142.08 1214.08 125.26 1195.50 116.52 C 1183.90 110.92 1170.74 109.35 1157.99 109.38 C 1096.33 109.17 1034.66 109.45 973.00 109.27 C 948.78 109.21 924.57 109.30 900.35 109.33 C 899.70 111.13 899.24 113.01 899.29 114.94 C 899.25 137.96 899.78 160.98 899.56 184.00 C 899.44 214.77 900.06 245.58 898.56 276.31 L 898.54 275.54 C 898.03 253.03 898.84 230.52 898.57 208.01 C 898.48 190.00 898.41 171.99 898.53 153.99 C 898.47 150.69 898.53 147.18 896.85 144.23 C 894.82 140.70 891.93 137.79 889.15 134.87 C 882.49 128.14 875.58 121.63 868.02 115.91 C 861.90 111.44 854.82 107.59 847.07 107.39 C 840.21 107.16 833.35 107.71 826.58 108.81 C 824.04 109.29 821.39 109.82 819.24 111.34 C 818.63 113.15 818.56 115.07 818.51 116.95 C 818.54 168.63 818.58 220.32 818.45 272.00 C 818.46 290.29 818.64 308.58 818.35 326.86 C 817.33 326.20 816.31 325.53 815.34 324.83 C 815.92 324.75 817.08 324.59 817.66 324.51 C 817.26 320.67 816.53 316.86 816.61 312.99 C 816.71 298.33 816.72 283.67 816.68 269.00 C 816.74 261.67 816.41 254.32 817.21 247.01 C 817.46 232.01 817.30 217.00 817.35 201.99 C 816.07 184.03 816.87 166.00 816.69 148.00 C 817.56 138.69 817.31 129.34 817.34 120.00 C 817.89 89.19 817.34 58.37 817.58 27.56 Z" />
<path fill="#3caf62" opacity="1.00" d=" M 968.79 268.83 C 971.72 264.85 980.23 266.14 979.44 271.93 C 979.68 300.28 979.49 328.64 979.71 357.00 C 979.59 359.41 980.17 362.28 978.05 364.03 C 971.67 370.34 965.98 377.30 959.88 383.88 C 940.55 404.22 921.40 424.73 902.07 445.06 C 882.74 465.75 864.16 487.15 844.00 507.04 C 839.99 511.04 836.61 515.62 832.52 519.55 C 829.10 522.85 826.04 526.49 823.05 530.18 C 817.81 536.53 811.64 542.01 806.14 548.12 C 799.39 556.05 791.43 562.83 784.79 570.85 C 779.19 576.47 773.92 582.46 767.93 587.66 C 764.90 586.93 762.70 584.54 760.37 582.65 C 747.51 572.23 735.46 560.87 723.15 549.84 C 715.70 542.59 707.48 536.21 699.98 529.02 C 687.66 518.01 676.27 506.02 663.84 495.12 C 648.93 482.05 634.23 468.75 619.36 455.65 C 616.71 453.93 617.38 450.71 617.41 448.03 C 617.59 422.02 617.42 396.01 617.56 370.00 C 617.62 367.12 618.47 362.51 622.12 362.49 C 624.75 362.01 627.16 363.29 629.13 364.90 C 653.29 384.60 675.25 406.79 698.91 427.05 C 706.72 434.31 715.25 440.74 723.12 447.93 C 728.69 452.66 733.84 457.86 739.40 462.61 C 746.39 469.34 754.27 475.06 761.50 481.53 C 763.44 483.29 765.68 484.66 767.99 485.88 C 773.59 478.28 779.98 471.32 786.40 464.41 C 794.89 454.88 803.55 445.51 812.18 436.10 C 835.84 411.76 857.77 385.79 881.41 361.41 C 890.12 352.12 898.93 342.92 907.48 333.48 C 928.31 312.31 947.82 289.87 968.79 268.83 Z" />
</g>
  </svg>
</svg>